<svg width="16" height="16" viewBox="0 0 16 16" fill="none" xmlns="http://www.w3.org/2000/svg">
<path d="M15.2 8.00156C15.2003 6.62553 14.8063 5.27824 14.0647 4.11921C13.323 2.96017 12.2647 2.03794 11.0152 1.46171C9.7656 0.885481 8.37709 0.679386 7.01403 0.867828C5.65097 1.05627 4.37046 1.63136 3.32411 2.525C2.27776 3.41864 1.5094 4.5934 1.11001 5.91018C0.710613 7.22697 0.696917 8.63063 1.07054 9.95496C1.44416 11.2793 2.18945 12.4688 3.21816 13.3827C4.24688 14.2966 5.51593 14.8966 6.87505 15.1116V10.0824H5.04745V8.00156H6.87505V6.41456C6.83581 6.04421 6.87847 5.66976 7.00002 5.31774C7.12157 4.96571 7.31903 4.64471 7.57842 4.37748C7.83781 4.11025 8.15279 3.90331 8.50104 3.77134C8.84929 3.63936 9.2223 3.58556 9.59365 3.61376C10.1336 3.62096 10.6724 3.66776 11.2058 3.75416V5.52836H10.2986C10.1441 5.50809 9.98697 5.52285 9.8389 5.57154C9.69083 5.62023 9.55561 5.70161 9.44325 5.80965C9.3309 5.91768 9.24428 6.04961 9.18982 6.19566C9.13536 6.34171 9.11446 6.49813 9.12865 6.65336V8.00336H11.1254L10.8062 10.0842H9.12505V15.1164C10.8191 14.8484 12.3619 13.9844 13.4756 12.6801C14.5893 11.3758 15.2008 9.71669 15.2 8.00156Z" fill="#333333"/>
</svg>
