<svg width="16" height="16" viewBox="0 0 16 16" fill="none" xmlns="http://www.w3.org/2000/svg">
<path d="M14.5701 0.799988H1.43005C1.07005 0.799988 0.800049 1.06999 0.800049 1.42999V14.66C0.800049 14.93 1.07005 15.2 1.43005 15.2H14.66C15.0201 15.2 15.29 14.93 15.29 14.57V1.42999C15.2 1.06999 14.93 0.799988 14.5701 0.799988ZM5.03005 13.04H2.96005V6.19999H5.12005V13.04H5.03005ZM4.04005 5.29999C3.32005 5.29999 2.78005 4.66999 2.78005 4.03999C2.78005 3.31999 3.32005 2.77999 4.04005 2.77999C4.76005 2.77999 5.30005 3.31999 5.30005 4.03999C5.21005 4.66999 4.67005 5.29999 4.04005 5.29999ZM13.04 13.04H10.88V9.70999C10.88 8.89999 10.88 7.90999 9.80005 7.90999C8.72005 7.90999 8.54005 8.80999 8.54005 9.70999V13.13H6.38005V6.19999H8.45005V7.09999C8.72005 6.55999 9.44005 6.01999 10.43 6.01999C12.59 6.01999 12.95 7.45999 12.95 9.25999V13.04H13.04Z" fill="#333333"/>
</svg>
