<svg width="16" height="12" viewBox="0 0 16 12" fill="none" xmlns="http://www.w3.org/2000/svg">
<path d="M15.2 1.35C14.66 1.62 14.12 1.71 13.49 1.8C14.12 1.44 14.57 0.9 14.75 0.18C14.21 0.54 13.58 0.72 12.86 0.9C12.32 0.36 11.51 0 10.7 0C9.17005 0 7.82005 1.35 7.82005 2.97C7.82005 3.24 7.82005 3.42 7.91005 3.6C5.48005 3.51 3.23005 2.34 1.79005 0.54C1.52005 0.99 1.43005 1.44 1.43005 2.07C1.43005 3.06 1.97005 3.96 2.78005 4.5C2.33005 4.5 1.88005 4.32 1.43005 4.14C1.43005 5.58 2.42005 6.75 3.77005 7.02C3.50005 7.11 3.23005 7.11 2.96005 7.11C2.78005 7.11 2.60005 7.11 2.42005 7.02C2.78005 8.19 3.86005 9.09 5.21005 9.09C4.22005 9.9 2.96005 10.35 1.52005 10.35H0.800049C2.15005 11.16 3.68005 11.7 5.30005 11.7C10.7 11.7 13.67 7.2 13.67 3.33V2.97C14.3 2.52 14.84 1.98 15.2 1.35Z" fill="#333333"/>
</svg>
