<svg width="16" height="16" viewBox="0 0 16 16" fill="none" xmlns="http://www.w3.org/2000/svg">
<path d="M12.3418 5.27493C12.1798 5.43696 11.96 5.52799 11.7309 5.52799C11.5017 5.52799 11.282 5.43696 11.1199 5.27493C10.9579 5.1129 10.8669 4.89314 10.8669 4.66399C10.8669 4.43484 10.9579 4.21508 11.1199 4.05305C11.282 3.89102 11.5017 3.79999 11.7309 3.79999C11.96 3.79999 12.1798 3.89102 12.3418 4.05305C12.5038 4.21508 12.5949 4.43484 12.5949 4.66399C12.5949 4.89314 12.5038 5.1129 12.3418 5.27493Z" fill="#333333"/>
<path fill-rule="evenodd" clip-rule="evenodd" d="M4.40005 8.36119C4.40005 10.3466 6.01464 11.9612 8.00005 11.9612C9.98546 11.9612 11.6 10.3466 11.6 8.36119C11.6 6.37579 9.98546 4.76119 8.00005 4.76119C6.01464 4.76119 4.40005 6.37579 4.40005 8.36119ZM6.20005 8.36119C6.20005 7.36819 7.00703 6.56119 8.00005 6.56119C8.99307 6.56119 9.80005 7.36819 9.80005 8.36119C9.80005 9.35419 8.99307 10.1612 8.00005 10.1612C7.00703 10.1612 6.20005 9.35419 6.20005 8.36119Z" fill="#333333"/>
<path fill-rule="evenodd" clip-rule="evenodd" d="M0.800049 11.6C0.800049 13.4504 2.54966 15.2 4.40005 15.2H11.6C13.4504 15.2 15.2 13.4504 15.2 11.6V4.39999C15.2 2.54959 13.4504 0.799988 11.6 0.799988H4.40005C2.54966 0.799988 0.800049 2.54959 0.800049 4.39999V11.6ZM2.60005 4.39999C2.60005 3.55879 3.55886 2.59999 4.40005 2.59999H11.6C12.4412 2.59999 13.4 3.55879 13.4 4.39999V11.6C13.4 12.4412 12.4412 13.4 11.6 13.4H4.40005C3.54205 13.4 2.60005 12.458 2.60005 11.6V4.39999Z" fill="#333333"/>
</svg>
