<svg width="16" height="12" viewBox="0 0 16 12" fill="none" xmlns="http://www.w3.org/2000/svg">
<path d="M15.02 3.11998C14.84 1.94998 14.3 1.13998 13.04 0.959976C11.06 0.599976 8.00005 0.599976 8.00005 0.599976C8.00005 0.599976 4.94005 0.599976 2.96005 0.959976C1.70005 1.13998 1.07005 1.94998 0.980049 3.11998C0.800049 4.28998 0.800049 5.99998 0.800049 5.99998C0.800049 5.99998 0.800049 7.70998 0.980049 8.87998C1.16005 10.05 1.70005 10.86 2.96005 11.04C4.94005 11.4 8.00005 11.4 8.00005 11.4C8.00005 11.4 11.06 11.4 13.04 11.04C14.3 10.77 14.84 10.05 15.02 8.87998C15.2 7.70998 15.2 5.99998 15.2 5.99998C15.2 5.99998 15.2 4.28998 15.02 3.11998ZM6.20005 8.69998V3.29998L10.7 5.99998L6.20005 8.69998Z" fill="#333333"/>
</svg>
